<svg xmlns="http://www.w3.org/2000/svg" xmlns:xlink="http://www.w3.org/1999/xlink" xmlns:lucid="lucid" width="2035.44" height="411.33"><g transform="translate(1094.9387091966437 -99.5)" lucid:page-tab-id="0_0"><path d="M-913.44 425.33h72.54" stroke="#3a414a" fill="none"/><path d="M-913.43 425.8h-.54l.03-.46v-.48h.5z" stroke="#3a414a" stroke-width=".05" fill="#3a414a"/><path d="M-826.13 425.33l-14.27 4.64v-9.27z" stroke="#3a414a" fill="#3a414a"/><path d="M-954.44 385.33c22.1 0 40 17.9 40 40s-17.9 40-40 40h-80c-22.1 0-40-17.9-40-40s17.9-40 40-40z" stroke="#3a414a" fill="#00c2a8"/><use xlink:href="#a" transform="matrix(1,0,0,1,-1069.4387091966437,390.33333333333337) translate(48.48765432098766 39.65277777777778)"/><path d="M-809.55 371.13a7.8 7.8 0 0 1 7.55-5.8h116a4.6 4.6 0 0 1 4.45 5.8l-28.9 108.4a7.8 7.8 0 0 1-7.55 5.8h-116a4.6 4.6 0 0 1-4.45-5.8z" stroke="#3a414a" fill="#ff80df"/><use xlink:href="#b" transform="matrix(1,0,0,1,-828,377.33333333333337) translate(16.199444444444445 28)"/><use xlink:href="#c" transform="matrix(1,0,0,1,-828,377.33333333333337) translate(50.58833333333333 28)"/><use xlink:href="#d" transform="matrix(1,0,0,1,-828,377.33333333333337) translate(110.58833333333332 28)"/><use xlink:href="#e" transform="matrix(1,0,0,1,-828,377.33333333333337) translate(9.782777777777776 52)"/><use xlink:href="#f" transform="matrix(1,0,0,1,-828,377.33333333333337) translate(20.532777777777785 76)"/><path d="M-600 366.33a6 6 0 0 1 6-6h148a6 6 0 0 1 6 6v118a6 6 0 0 1-6 6h-148a6 6 0 0 1-6-6z" stroke="#3a414a" fill="#6db1ff"/><use xlink:href="#g" transform="matrix(1,0,0,1,-595,365.33333333333337) translate(14.527777777777786 19.75)"/><use xlink:href="#h" transform="matrix(1,0,0,1,-595,365.33333333333337) translate(114.36111111111111 19.75)"/><use xlink:href="#i" transform="matrix(1,0,0,1,-595,365.33333333333337) translate(5.6111111111111285 43.74999999999999)"/><use xlink:href="#j" transform="matrix(1,0,0,1,-595,365.33333333333337) translate(80 43.74999999999999)"/><use xlink:href="#k" transform="matrix(1,0,0,1,-595,365.33333333333337) translate(123.27777777777777 43.74999999999999)"/><use xlink:href="#c" transform="matrix(1,0,0,1,-595,365.33333333333337) translate(33.88888888888889 67.74999999999999)"/><use xlink:href="#l" transform="matrix(1,0,0,1,-595,365.33333333333337) translate(93.88888888888889 67.74999999999999)"/><use xlink:href="#m" transform="matrix(1,0,0,1,-595,365.33333333333337) translate(9.5 91.74999999999999)"/><use xlink:href="#n" transform="matrix(1,0,0,1,-595,365.33333333333337) translate(112.72222222222221 91.74999999999999)"/><use xlink:href="#o" transform="matrix(1,0,0,1,-595,365.33333333333337) translate(129.38888888888889 91.74999999999999)"/><use xlink:href="#p" transform="matrix(1,0,0,1,-595,365.33333333333337) translate(26.777777777777786 115.74999999999999)"/><path d="M-694.98 425.33h78.1" stroke="#3a414a" fill="none"/><path d="M-694.97 425.8h-.64l.24-.94h.4z" stroke="#3a414a" stroke-width=".05" fill="#3a414a"/><path d="M-602.12 425.33l-14.26 4.64v-9.27z" stroke="#3a414a" fill="#3a414a"/><path d="M-350 371.33a6 6 0 0 1 6-6h148a6 6 0 0 1 6 6v108a6 6 0 0 1-6 6h-148a6 6 0 0 1-6-6z" stroke="#3a414a" fill="#6db1ff"/><use xlink:href="#q" transform="matrix(1,0,0,1,-345,370.33333333333337) translate(34.382716049382715 31.52777777777778)"/><use xlink:href="#r" transform="matrix(1,0,0,1,-345,370.33333333333337) translate(7.7777777777777715 58.19444444444445)"/><use xlink:href="#s" transform="matrix(1,0,0,1,-345,370.33333333333337) translate(117.53086419753086 58.19444444444445)"/><use xlink:href="#t" transform="matrix(1,0,0,1,-345,370.33333333333337) translate(20.740740740740733 84.86111111111111)"/><path d="M-439 425.33h72.12" stroke="#3a414a" fill="none"/><path d="M-439 425.8h-.5v-.94h.5z" stroke="#3a414a" stroke-width=".05" fill="#3a414a"/><path d="M-352.12 425.33l-14.26 4.64v-9.27z" stroke="#3a414a" fill="#3a414a"/><path d="M-100 371.33a6 6 0 0 1 6-6H54a6 6 0 0 1 6 6v108a6 6 0 0 1-6 6H-94a6 6 0 0 1-6-6z" stroke="#3a414a" fill="#6db1ff"/><use xlink:href="#u" transform="matrix(1,0,0,1,-95,370.33333333333337) translate(1.1111111111111143 21.21527777777778)"/><use xlink:href="#v" transform="matrix(1,0,0,1,-95,370.33333333333337) translate(88.51851851851852 21.21527777777778)"/><use xlink:href="#w" transform="matrix(1,0,0,1,-95,370.33333333333337) translate(33.672839506172835 47.88194444444444)"/><use xlink:href="#x" transform="matrix(1,0,0,1,-95,370.33333333333337) translate(52.191358024691354 47.88194444444444)"/><use xlink:href="#y" transform="matrix(1,0,0,1,-95,370.33333333333337) translate(25.030864197530867 74.54861111111111)"/><use xlink:href="#s" transform="matrix(1,0,0,1,-95,370.33333333333337) translate(100.27777777777777 74.54861111111111)"/><use xlink:href="#z" transform="matrix(1,0,0,1,-95,370.33333333333337) translate(23.209876543209873 101.21527777777777)"/><path d="M-189 425.33h72.12" stroke="#3a414a" fill="none"/><path d="M-189 425.8h-.5v-.94h.5z" stroke="#3a414a" stroke-width=".05" fill="#3a414a"/><path d="M-102.12 425.33l-14.26 4.64v-9.27z" stroke="#3a414a" fill="#3a414a"/><path d="M258.42 365.77a9.9 9.9 0 0 1 10.27 0l93.28 56.46a3.63 3.63 0 0 1 0 6.2l-93.3 56.46a9.9 9.9 0 0 1-10.26 0l-93.3-56.46a3.63 3.63 0 0 1 0-6.2z" stroke="#1071e5" stroke-width="3" fill="#fff"/><use xlink:href="#A" transform="matrix(1,0,0,1,165,367.6666666666667) translate(44.62228395061731 41.44444444444444)"/><use xlink:href="#B" transform="matrix(1,0,0,1,165,367.6666666666667) translate(97.16549382716049 41.44444444444444)"/><use xlink:href="#C" transform="matrix(1,0,0,1,165,367.6666666666667) translate(123.0482098765432 41.44444444444444)"/><use xlink:href="#D" transform="matrix(1,0,0,1,165,367.6666666666667) translate(13.921666666666704 60.1111111111111)"/><use xlink:href="#E" transform="matrix(1,0,0,1,165,367.6666666666667) translate(76.87845679012347 60.1111111111111)"/><use xlink:href="#F" transform="matrix(1,0,0,1,165,367.6666666666667) translate(89.84141975308643 60.1111111111111)"/><use xlink:href="#G" transform="matrix(1,0,0,1,165,367.6666666666667) translate(166.66858024691356 60.1111111111111)"/><use xlink:href="#H" transform="matrix(1,0,0,1,165,367.6666666666667) translate(68.2796913580247 78.77777777777776)"/><path d="M61 425.33h84.5" stroke="#3a414a" fill="none"/><path d="M61 425.8h-.5v-.94h.5z" stroke="#3a414a" stroke-width=".05" fill="#3a414a"/><path d="M160.26 425.33L146 429.97v-9.27z" stroke="#3a414a" fill="#3a414a"/><path d="M407.06 426.3h-40.82v-1.94h40.82zm53.94 0h-23.32v-1.94H461z" stroke="#54c45e" stroke-width=".05" fill="#54c45e"/><path d="M366.26 426.3h-1.13l.1-.97-.1-.97h1.13z" fill="#54c45e"/><path stroke="#54c45e" stroke-width=".05" fill="#54c45e"/><path d="M476.26 425.33L462 429.97v-9.27z" fill="#54c45e"/><path d="M479.42 425.33l-18.4 5.98v-11.94zm-16.45 3.3l10.14-3.3-10.13-3.3z" stroke="#54c45e" stroke-width=".05" fill="#54c45e"/><g><use xlink:href="#I" transform="matrix(1,0,0,1,407.0590444793351,414.6666666666667) translate(0 14.222222222222223)"/></g><path d="M260.98 362.4h-1.96v-40.2h1.96zm0-61.55h-1.96V259h1.96z" stroke="#fe7070" stroke-width=".05" fill="#fe7070"/><path d="M260.98 363.14l-1.1.3-.86.35v-1.4h1.96z" fill="#fe7070"/><path stroke="#fe7070" stroke-width=".05" fill="#fe7070"/><path d="M264.63 258h-9.26l4.63-14.26z" fill="#fe7070"/><path d="M265.98 258.98h-11.96l5.98-18.4zm-9.27-1.95h6.6L260 246.9z" stroke="#fe7070" stroke-width=".05" fill="#fe7070"/><g><use xlink:href="#J" transform="matrix(1,0,0,1,248.19753086419752,300.85449846375707) translate(0 14.222222222222223)"/></g><path d="M180 126a6 6 0 0 1 6-6h148a6 6 0 0 1 6 6v108a6 6 0 0 1-6 6H186a6 6 0 0 1-6-6z" stroke="#3a414a" fill="#6db1ff"/><g><use xlink:href="#K" transform="matrix(1,0,0,1,185,125) translate(23.919753086419746 45.27777777777778)"/><use xlink:href="#L" transform="matrix(1,0,0,1,185,125) translate(38.61111111111111 71.94444444444446)"/><use xlink:href="#M" transform="matrix(1,0,0,1,185,125) translate(99.04320987654322 71.94444444444446)"/></g><path d="M480 371.33a6 6 0 0 1 6-6h148a6 6 0 0 1 6 6v108a6 6 0 0 1-6 6H486a6 6 0 0 1-6-6z" stroke="#3a414a" fill="#6db1ff"/><g><use xlink:href="#K" transform="matrix(1,0,0,1,485,370.33333333333337) translate(23.919753086419746 45.27777777777778)"/><use xlink:href="#L" transform="matrix(1,0,0,1,485,370.33333333333337) translate(4.660493827160494 71.94444444444446)"/><use xlink:href="#N" transform="matrix(1,0,0,1,485,370.33333333333337) translate(65.0925925925926 71.94444444444446)"/><use xlink:href="#O" transform="matrix(1,0,0,1,485,370.33333333333337) translate(102.12962962962963 71.94444444444446)"/><use xlink:href="#P" transform="matrix(1,0,0,1,485,370.33333333333337) translate(132.99382716049382 71.94444444444446)"/></g><path d="M880 385.33c22.1 0 40 17.9 40 40s-17.9 40-40 40h-80c-22.1 0-40-17.9-40-40s17.9-40 40-40z" stroke="#3a414a" fill="#00c2a8"/><g><use xlink:href="#Q" transform="matrix(1,0,0,1,765,390.33333333333337) translate(56.574074074074076 39.65277777777778)"/></g><path d="M641 417.46h102.96" stroke="#3a414a" fill="none"/><path d="M641 417.93h-.5v-.95h.5z" stroke="#3a414a" stroke-width=".05" fill="#3a414a"/><path d="M758.73 417.46l-14.27 4.63v-9.28z" stroke="#3a414a" fill="#3a414a"/><path d="M835 179.6l1 .24.94.4.87.52.78.66.66.77.53.86.4.94.23 1 .08.98v182.47h-.96V186.02l-.06-.88-.2-.85-.34-.8-.45-.75-.56-.66-.65-.57-.74-.45-.8-.33-.84-.2-.88-.08H341v-.94h493.02z" stroke="#3a414a" stroke-width=".05" fill="#3a414a"/><path d="M341 180.47h-.5v-.94h.5z" fill="#3a414a"/><path stroke="#3a414a" stroke-width=".05" fill="#3a414a"/><path d="M840 383.2l-4.63-14.25h9.26z" fill="#3a414a"/><path d="M840 384.75l-5.3-16.28h10.6zm-3.98-15.33l3.98 12.26 3.98-12.26z" stroke="#3a414a" stroke-width=".05" fill="#3a414a"/><defs><path d="M33 0v-248h34V0H33" id="R"/><path d="M117-194c89-4 53 116 60 194h-32v-121c0-31-8-49-39-48C34-167 62-67 57 0H25l-1-190h30c1 10-1 24 2 32 11-22 29-35 61-36" id="S"/><path d="M34 0v-190h32V0H34zM24-211c8-23 27-35 38-54h36v5l-58 49H24" id="T"/><path d="M96-169c-40 0-48 33-48 73s9 75 48 75c24 0 41-14 43-38l32 2c-6 37-31 61-74 61-59 0-76-41-82-99-10-93 101-131 147-64 4 7 5 14 7 22l-32 3c-4-21-16-35-41-35" id="U"/><path d="M24-231v-30h32v30H24zM24 0v-190h32V0H24" id="V"/><path d="M100-194c62-1 85 37 85 99 1 63-27 99-86 99S16-35 15-95c0-66 28-99 85-99zM99-20c44 1 53-31 53-75 0-43-8-75-51-75s-53 32-53 75 10 74 51 75" id="W"/><g id="a"><use transform="matrix(0.06172839506172839,0,0,0.06172839506172839,0,0)" xlink:href="#R"/><use transform="matrix(0.06172839506172839,0,0,0.06172839506172839,6.172839506172839,0)" xlink:href="#S"/><use transform="matrix(0.06172839506172839,0,0,0.06172839506172839,18.51851851851852,0)" xlink:href="#T"/><use transform="matrix(0.06172839506172839,0,0,0.06172839506172839,24.691358024691358,0)" xlink:href="#U"/><use transform="matrix(0.06172839506172839,0,0,0.06172839506172839,35.80246913580247,0)" xlink:href="#V"/><use transform="matrix(0.06172839506172839,0,0,0.06172839506172839,40.67901234567901,0)" xlink:href="#W"/></g><path d="M30 0v-248h33v221h125V0H30" id="X"/><path d="M100-194c63 0 86 42 84 106H49c0 40 14 67 53 68 26 1 43-12 49-29l28 8c-11 28-37 45-77 45C44 4 14-33 15-96c1-61 26-98 85-98zm52 81c6-60-76-77-97-28-3 7-6 17-6 28h103" id="Y"/><path d="M114-163C36-179 61-72 57 0H25l-1-190h30c1 12-1 29 2 39 6-27 23-49 58-41v29" id="Z"/><g id="b"><use transform="matrix(0.055555555555555546,0,0,0.055555555555555546,0,0)" xlink:href="#X"/><use transform="matrix(0.055555555555555546,0,0,0.055555555555555546,11.111111111111109,0)" xlink:href="#Y"/><use transform="matrix(0.055555555555555546,0,0,0.055555555555555546,22.222222222222218,0)" xlink:href="#Z"/></g><path d="M85-194c31 0 48 13 60 33l-1-100h32l1 261h-30c-2-10 0-23-3-31C134-8 116 4 85 4 32 4 16-35 15-94c0-66 23-100 70-100zm9 24c-40 0-46 34-46 75 0 40 6 74 45 74 42 0 51-32 51-76 0-42-9-74-50-73" id="aa"/><path d="M141-36C126-15 110 5 73 4 37 3 15-17 15-53c-1-64 63-63 125-63 3-35-9-54-41-54-24 1-41 7-42 31l-33-3c5-37 33-52 76-52 45 0 72 20 72 64v82c-1 20 7 32 28 27v20c-31 9-61-2-59-35zM48-53c0 20 12 33 32 33 41-3 63-29 60-74-43 2-92-5-92 41" id="ab"/><path d="M135-143c-3-34-86-38-87 0 15 53 115 12 119 90S17 21 10-45l28-5c4 36 97 45 98 0-10-56-113-15-118-90-4-57 82-63 122-42 12 7 21 19 24 35" id="ac"/><g id="c"><use transform="matrix(0.055555555555555546,0,0,0.055555555555555546,0,0)" xlink:href="#aa"/><use transform="matrix(0.055555555555555546,0,0,0.055555555555555546,11.111111111111109,0)" xlink:href="#ab"/><use transform="matrix(0.055555555555555546,0,0,0.055555555555555546,22.222222222222218,0)" xlink:href="#aa"/><use transform="matrix(0.055555555555555546,0,0,0.055555555555555546,33.33333333333333,0)" xlink:href="#W"/><use transform="matrix(0.055555555555555546,0,0,0.055555555555555546,44.444444444444436,0)" xlink:href="#ac"/></g><g id="d"><use transform="matrix(0.055555555555555546,0,0,0.055555555555555546,0,0)" xlink:href="#aa"/><use transform="matrix(0.055555555555555546,0,0,0.055555555555555546,11.111111111111109,0)" xlink:href="#W"/></g><path d="M24 0v-261h32V0H24" id="ad"/><path d="M100-194c62-1 85 37 85 99 1 63-27 99-86 99S16-35 15-95c0-66 28-99 85-99zM99-20c44 1 53-31 53-75 0-43-8-75-51-75s-53 32-53 75 10 74 51 75zm20-242c12 18 30 30 39 51-31 2-38-20-57-30-20 10-27 32-59 30 9-22 29-33 41-51h36" id="ae"/><path d="M210-169c-67 3-38 105-44 169h-31v-121c0-29-5-50-35-48C34-165 62-65 56 0H25l-1-190h30c1 10-1 24 2 32 10-44 99-50 107 0 11-21 27-35 58-36 85-2 47 119 55 194h-31v-121c0-29-5-49-35-48" id="af"/><path d="M59-47c-2 24 18 29 38 22v24C64 9 27 4 27-40v-127H5v-23h24l9-43h21v43h35v23H59v120" id="ag"/><g id="e"><use transform="matrix(0.055555555555555546,0,0,0.055555555555555546,0,0)" xlink:href="#ab"/><use transform="matrix(0.055555555555555546,0,0,0.055555555555555546,11.111111111111109,0)" xlink:href="#U"/><use transform="matrix(0.055555555555555546,0,0,0.055555555555555546,21.111111111111107,0)" xlink:href="#Y"/><use transform="matrix(0.055555555555555546,0,0,0.055555555555555546,32.222222222222214,0)" xlink:href="#ad"/><use transform="matrix(0.055555555555555546,0,0,0.055555555555555546,36.6111111111111,0)" xlink:href="#Y"/><use transform="matrix(0.055555555555555546,0,0,0.055555555555555546,47.72222222222221,0)" xlink:href="#Z"/><use transform="matrix(0.055555555555555546,0,0,0.055555555555555546,54.333333333333314,0)" xlink:href="#ae"/><use transform="matrix(0.055555555555555546,0,0,0.055555555555555546,65.44444444444443,0)" xlink:href="#af"/><use transform="matrix(0.055555555555555546,0,0,0.055555555555555546,82.05555555555554,0)" xlink:href="#Y"/><use transform="matrix(0.055555555555555546,0,0,0.055555555555555546,93.16666666666666,0)" xlink:href="#ag"/><use transform="matrix(0.055555555555555546,0,0,0.055555555555555546,98.72222222222221,0)" xlink:href="#Z"/><use transform="matrix(0.055555555555555546,0,0,0.055555555555555546,105.33333333333333,0)" xlink:href="#W"/></g><path d="M87 75C49 33 22-17 22-94c0-76 28-126 65-167h31c-38 41-64 92-64 168S80 34 118 75H87" id="ah"/><path d="M115-194c55 1 70 41 70 98S169 2 115 4C84 4 66-9 55-30l1 105H24l-1-265h31l2 30c10-21 28-34 59-34zm-8 174c40 0 45-34 45-75s-6-73-45-74c-42 0-51 32-51 76 0 43 10 73 51 73" id="ai"/><path d="M106-169C34-169 62-67 57 0H25v-261h32l-1 103c12-21 28-36 61-36 89 0 53 116 60 194h-32v-121c2-32-8-49-39-48" id="aj"/><path d="M33-261c38 41 65 92 65 168S71 34 33 75H2C39 34 66-17 66-93S39-220 2-261h31" id="ak"/><g id="f"><use transform="matrix(0.055555555555555546,0,0,0.055555555555555546,0,0)" xlink:href="#ah"/><use transform="matrix(0.055555555555555546,0,0,0.055555555555555546,6.61111111111111,0)" xlink:href="#ai"/><use transform="matrix(0.055555555555555546,0,0,0.055555555555555546,17.722222222222218,0)" xlink:href="#ad"/><use transform="matrix(0.055555555555555546,0,0,0.055555555555555546,22.111111111111107,0)" xlink:href="#ab"/><use transform="matrix(0.055555555555555546,0,0,0.055555555555555546,33.222222222222214,0)" xlink:href="#S"/><use transform="matrix(0.055555555555555546,0,0,0.055555555555555546,44.33333333333332,0)" xlink:href="#V"/><use transform="matrix(0.055555555555555546,0,0,0.055555555555555546,48.72222222222221,0)" xlink:href="#ad"/><use transform="matrix(0.055555555555555546,0,0,0.055555555555555546,53.11111111111109,0)" xlink:href="#aj"/><use transform="matrix(0.055555555555555546,0,0,0.055555555555555546,64.2222222222222,0)" xlink:href="#ab"/><use transform="matrix(0.055555555555555546,0,0,0.055555555555555546,75.33333333333331,0)" xlink:href="#ak"/></g><path d="M185-189c-5-48-123-54-124 2 14 75 158 14 163 119 3 78-121 87-175 55-17-10-28-26-33-46l33-7c5 56 141 63 141-1 0-78-155-14-162-118-5-82 145-84 179-34 5 7 8 16 11 25" id="al"/><g id="g"><use transform="matrix(0.055555555555555546,0,0,0.055555555555555546,0,0)" xlink:href="#al"/><use transform="matrix(0.055555555555555546,0,0,0.055555555555555546,13.33333333333333,0)" xlink:href="#Y"/><use transform="matrix(0.055555555555555546,0,0,0.055555555555555546,24.44444444444444,0)" xlink:href="#ad"/><use transform="matrix(0.055555555555555546,0,0,0.055555555555555546,28.83333333333333,0)" xlink:href="#Y"/><use transform="matrix(0.055555555555555546,0,0,0.055555555555555546,39.944444444444436,0)" xlink:href="#U"/><use transform="matrix(0.055555555555555546,0,0,0.055555555555555546,49.944444444444436,0)" xlink:href="#V"/><use transform="matrix(0.055555555555555546,0,0,0.055555555555555546,54.33333333333332,0)" xlink:href="#W"/><use transform="matrix(0.055555555555555546,0,0,0.055555555555555546,65.44444444444443,0)" xlink:href="#S"/><use transform="matrix(0.055555555555555546,0,0,0.055555555555555546,76.55555555555554,0)" xlink:href="#ab"/><use transform="matrix(0.055555555555555546,0,0,0.055555555555555546,87.66666666666666,0)" xlink:href="#Z"/></g><g id="h"><use transform="matrix(0.055555555555555546,0,0,0.055555555555555546,0,0)" xlink:href="#ab"/><use transform="matrix(0.055555555555555546,0,0,0.055555555555555546,11.111111111111109,0)" xlink:href="#ac"/></g><path d="M84 4C-5 8 30-112 23-190h32v120c0 31 7 50 39 49 72-2 45-101 50-169h31l1 190h-30c-1-10 1-25-2-33-11 22-28 36-60 37" id="am"/><g id="i"><use transform="matrix(0.055555555555555546,0,0,0.055555555555555546,0,0)" xlink:href="#U"/><use transform="matrix(0.055555555555555546,0,0,0.055555555555555546,9.999999999999998,0)" xlink:href="#W"/><use transform="matrix(0.055555555555555546,0,0,0.055555555555555546,21.111111111111107,0)" xlink:href="#ad"/><use transform="matrix(0.055555555555555546,0,0,0.055555555555555546,25.499999999999996,0)" xlink:href="#am"/><use transform="matrix(0.055555555555555546,0,0,0.055555555555555546,36.61111111111111,0)" xlink:href="#S"/><use transform="matrix(0.055555555555555546,0,0,0.055555555555555546,47.722222222222214,0)" xlink:href="#ab"/><use transform="matrix(0.055555555555555546,0,0,0.055555555555555546,58.83333333333332,0)" xlink:href="#ac"/></g><g id="j"><use transform="matrix(0.055555555555555546,0,0,0.055555555555555546,0,0)" xlink:href="#U"/><use transform="matrix(0.055555555555555546,0,0,0.055555555555555546,9.999999999999998,0)" xlink:href="#W"/><use transform="matrix(0.055555555555555546,0,0,0.055555555555555546,21.111111111111107,0)" xlink:href="#af"/></g><g id="k"><use transform="matrix(0.055555555555555546,0,0,0.055555555555555546,0,0)" xlink:href="#W"/><use transform="matrix(0.055555555555555546,0,0,0.055555555555555546,11.111111111111109,0)" xlink:href="#ac"/></g><g id="l"><use transform="matrix(0.055555555555555546,0,0,0.055555555555555546,0,0)" xlink:href="#aa"/><use transform="matrix(0.055555555555555546,0,0,0.055555555555555546,11.111111111111109,0)" xlink:href="#Y"/></g><path d="M96-169c-40 0-48 33-48 73s9 75 48 75c24 0 41-14 43-38l32 2c-6 37-31 61-74 61-59 0-76-41-82-99-10-93 101-131 147-64 4 7 5 14 7 22l-32 3c-4-21-16-35-41-35zm3 187c19-1 33 8 33 26 0 31-30 33-64 32V58c18 2 39 4 41-13 1-15-18-13-34-13L87 0h19" id="an"/><path d="M141-36C126-15 110 5 73 4 37 3 15-17 15-53c-1-64 63-63 125-63 3-35-9-54-41-54-24 1-41 7-42 31l-33-3c5-37 33-52 76-52 45 0 72 20 72 64v82c-1 20 7 32 28 27v20c-31 9-61-2-59-35zM48-53c0 20 12 33 32 33 41-3 63-29 60-74-43 2-92-5-92 41zm117-205c-3 23-9 48-36 47-26-1-65-44-74 0H39c4-23 8-48 36-47s64 44 74 0h16" id="ao"/><g id="m"><use transform="matrix(0.055555555555555546,0,0,0.055555555555555546,0,0)" xlink:href="#ab"/><use transform="matrix(0.055555555555555546,0,0,0.055555555555555546,11.111111111111109,0)" xlink:href="#U"/><use transform="matrix(0.055555555555555546,0,0,0.055555555555555546,21.111111111111107,0)" xlink:href="#Y"/><use transform="matrix(0.055555555555555546,0,0,0.055555555555555546,32.222222222222214,0)" xlink:href="#ad"/><use transform="matrix(0.055555555555555546,0,0,0.055555555555555546,36.6111111111111,0)" xlink:href="#Y"/><use transform="matrix(0.055555555555555546,0,0,0.055555555555555546,47.72222222222221,0)" xlink:href="#Z"/><use transform="matrix(0.055555555555555546,0,0,0.055555555555555546,54.333333333333314,0)" xlink:href="#ab"/><use transform="matrix(0.055555555555555546,0,0,0.055555555555555546,65.44444444444443,0)" xlink:href="#an"/><use transform="matrix(0.055555555555555546,0,0,0.055555555555555546,75.44444444444443,0)" xlink:href="#ao"/><use transform="matrix(0.055555555555555546,0,0,0.055555555555555546,86.55555555555554,0)" xlink:href="#W"/></g><use transform="matrix(0.055555555555555546,0,0,0.055555555555555546,0,0)" xlink:href="#Y" id="n"/><use transform="matrix(0.055555555555555546,0,0,0.055555555555555546,0,0)" xlink:href="#ab" id="o"/><path d="M115-194c53 0 69 39 70 98 0 66-23 100-70 100C84 3 66-7 56-30L54 0H23l1-261h32v101c10-23 28-34 59-34zm-8 174c40 0 45-34 45-75 0-40-5-75-45-74-42 0-51 32-51 76 0 43 10 73 51 73" id="ap"/><g id="p"><use transform="matrix(0.055555555555555546,0,0,0.055555555555555546,0,0)" xlink:href="#af"/><use transform="matrix(0.055555555555555546,0,0,0.055555555555555546,16.611111111111107,0)" xlink:href="#W"/><use transform="matrix(0.055555555555555546,0,0,0.055555555555555546,27.722222222222214,0)" xlink:href="#ap"/><use transform="matrix(0.055555555555555546,0,0,0.055555555555555546,38.83333333333332,0)" xlink:href="#V"/><use transform="matrix(0.055555555555555546,0,0,0.055555555555555546,43.22222222222221,0)" xlink:href="#ad"/><use transform="matrix(0.055555555555555546,0,0,0.055555555555555546,47.61111111111109,0)" xlink:href="#V"/><use transform="matrix(0.055555555555555546,0,0,0.055555555555555546,51.99999999999998,0)" xlink:href="#aa"/><use transform="matrix(0.055555555555555546,0,0,0.055555555555555546,63.111111111111086,0)" xlink:href="#ab"/><use transform="matrix(0.055555555555555546,0,0,0.055555555555555546,74.2222222222222,0)" xlink:href="#aa"/><use transform="matrix(0.055555555555555546,0,0,0.055555555555555546,85.33333333333331,0)" xlink:href="#Y"/></g><path d="M212-179c-10-28-35-45-73-45-59 0-87 40-87 99 0 60 29 101 89 101 43 0 62-24 78-52l27 14C228-24 195 4 139 4 59 4 22-46 18-125c-6-104 99-153 187-111 19 9 31 26 39 46" id="aq"/><g id="q"><use transform="matrix(0.06172839506172839,0,0,0.06172839506172839,0,0)" xlink:href="#aq"/><use transform="matrix(0.06172839506172839,0,0,0.06172839506172839,15.987654320987653,0)" xlink:href="#ab"/><use transform="matrix(0.06172839506172839,0,0,0.06172839506172839,28.333333333333332,0)" xlink:href="#ad"/><use transform="matrix(0.06172839506172839,0,0,0.06172839506172839,33.20987654320987,0)" xlink:href="#U"/><use transform="matrix(0.06172839506172839,0,0,0.06172839506172839,44.32098765432099,0)" xlink:href="#am"/><use transform="matrix(0.06172839506172839,0,0,0.06172839506172839,56.666666666666664,0)" xlink:href="#ad"/><use transform="matrix(0.06172839506172839,0,0,0.06172839506172839,61.54320987654321,0)" xlink:href="#ab"/><use transform="matrix(0.06172839506172839,0,0,0.06172839506172839,73.88888888888889,0)" xlink:href="#Z"/></g><path d="M177-190C167-65 218 103 67 71c-23-6-38-20-44-43l32-5c15 47 100 32 89-28v-30C133-14 115 1 83 1 29 1 15-40 15-95c0-56 16-97 71-98 29-1 48 16 59 35 1-10 0-23 2-32h30zM94-22c36 0 50-32 50-73 0-42-14-75-50-75-39 0-46 34-46 75s6 73 46 73" id="ar"/><g id="r"><use transform="matrix(0.06172839506172839,0,0,0.06172839506172839,0,0)" xlink:href="#af"/><use transform="matrix(0.06172839506172839,0,0,0.06172839506172839,18.456790123456788,0)" xlink:href="#ab"/><use transform="matrix(0.06172839506172839,0,0,0.06172839506172839,30.80246913580247,0)" xlink:href="#ar"/><use transform="matrix(0.06172839506172839,0,0,0.06172839506172839,43.148148148148145,0)" xlink:href="#S"/><use transform="matrix(0.06172839506172839,0,0,0.06172839506172839,55.49382716049382,0)" xlink:href="#V"/><use transform="matrix(0.06172839506172839,0,0,0.06172839506172839,60.37037037037037,0)" xlink:href="#ag"/><use transform="matrix(0.06172839506172839,0,0,0.06172839506172839,66.5432098765432,0)" xlink:href="#am"/><use transform="matrix(0.06172839506172839,0,0,0.06172839506172839,78.88888888888889,0)" xlink:href="#aa"/><use transform="matrix(0.06172839506172839,0,0,0.06172839506172839,91.23456790123457,0)" xlink:href="#Y"/></g><g id="s"><use transform="matrix(0.06172839506172839,0,0,0.06172839506172839,0,0)" xlink:href="#aa"/><use transform="matrix(0.06172839506172839,0,0,0.06172839506172839,12.345679012345679,0)" xlink:href="#ab"/></g><g id="t"><use transform="matrix(0.06172839506172839,0,0,0.06172839506172839,0,0)" xlink:href="#ab"/><use transform="matrix(0.06172839506172839,0,0,0.06172839506172839,12.345679012345679,0)" xlink:href="#U"/><use transform="matrix(0.06172839506172839,0,0,0.06172839506172839,23.45679012345679,0)" xlink:href="#Y"/><use transform="matrix(0.06172839506172839,0,0,0.06172839506172839,35.80246913580247,0)" xlink:href="#ad"/><use transform="matrix(0.06172839506172839,0,0,0.06172839506172839,40.67901234567901,0)" xlink:href="#Y"/><use transform="matrix(0.06172839506172839,0,0,0.06172839506172839,53.02469135802469,0)" xlink:href="#Z"/><use transform="matrix(0.06172839506172839,0,0,0.06172839506172839,60.37037037037037,0)" xlink:href="#ab"/><use transform="matrix(0.06172839506172839,0,0,0.06172839506172839,72.71604938271605,0)" xlink:href="#an"/><use transform="matrix(0.06172839506172839,0,0,0.06172839506172839,83.82716049382717,0)" xlink:href="#ao"/><use transform="matrix(0.06172839506172839,0,0,0.06172839506172839,96.17283950617285,0)" xlink:href="#W"/></g><g id="u"><use transform="matrix(0.06172839506172839,0,0,0.06172839506172839,0,0)" xlink:href="#aq"/><use transform="matrix(0.06172839506172839,0,0,0.06172839506172839,15.987654320987653,0)" xlink:href="#ab"/><use transform="matrix(0.06172839506172839,0,0,0.06172839506172839,28.333333333333332,0)" xlink:href="#ad"/><use transform="matrix(0.06172839506172839,0,0,0.06172839506172839,33.20987654320987,0)" xlink:href="#U"/><use transform="matrix(0.06172839506172839,0,0,0.06172839506172839,44.32098765432099,0)" xlink:href="#am"/><use transform="matrix(0.06172839506172839,0,0,0.06172839506172839,56.666666666666664,0)" xlink:href="#ad"/><use transform="matrix(0.06172839506172839,0,0,0.06172839506172839,61.54320987654321,0)" xlink:href="#ab"/><use transform="matrix(0.06172839506172839,0,0,0.06172839506172839,73.88888888888889,0)" xlink:href="#Z"/></g><path d="M100-194c63 0 86 42 84 106H49c0 40 14 67 53 68 26 1 43-12 49-29l28 8c-11 28-37 45-77 45C44 4 14-33 15-96c1-61 26-98 85-98zm52 81c6-60-76-77-97-28-3 7-6 17-6 28h103zm-74-98c8-23 27-35 38-54h36v5l-58 49H78" id="as"/><g id="v"><use transform="matrix(0.06172839506172839,0,0,0.06172839506172839,0,0)" xlink:href="#af"/><use transform="matrix(0.06172839506172839,0,0,0.06172839506172839,18.456790123456788,0)" xlink:href="#as"/><use transform="matrix(0.06172839506172839,0,0,0.06172839506172839,30.80246913580247,0)" xlink:href="#aa"/><use transform="matrix(0.06172839506172839,0,0,0.06172839506172839,43.148148148148145,0)" xlink:href="#V"/><use transform="matrix(0.06172839506172839,0,0,0.06172839506172839,48.02469135802469,0)" xlink:href="#ab"/></g><use transform="matrix(0.06172839506172839,0,0,0.06172839506172839,0,0)" xlink:href="#Y" id="w"/><path d="M108 0H70L1-190h34L89-25l56-165h34" id="at"/><g id="x"><use transform="matrix(0.06172839506172839,0,0,0.06172839506172839,0,0)" xlink:href="#aa"/><use transform="matrix(0.06172839506172839,0,0,0.06172839506172839,12.345679012345679,0)" xlink:href="#Y"/><use transform="matrix(0.06172839506172839,0,0,0.06172839506172839,24.691358024691358,0)" xlink:href="#ac"/><use transform="matrix(0.06172839506172839,0,0,0.06172839506172839,35.80246913580247,0)" xlink:href="#at"/><use transform="matrix(0.06172839506172839,0,0,0.06172839506172839,46.91358024691358,0)" xlink:href="#V"/><use transform="matrix(0.06172839506172839,0,0,0.06172839506172839,51.79012345679013,0)" xlink:href="#W"/></g><g id="y"><use transform="matrix(0.06172839506172839,0,0,0.06172839506172839,0,0)" xlink:href="#ai"/><use transform="matrix(0.06172839506172839,0,0,0.06172839506172839,12.345679012345679,0)" xlink:href="#ab"/><use transform="matrix(0.06172839506172839,0,0,0.06172839506172839,24.691358024691358,0)" xlink:href="#aa"/><use transform="matrix(0.06172839506172839,0,0,0.06172839506172839,37.03703703703704,0)" xlink:href="#Z"/><use transform="matrix(0.06172839506172839,0,0,0.06172839506172839,44.382716049382715,0)" xlink:href="#ao"/><use transform="matrix(0.06172839506172839,0,0,0.06172839506172839,56.72839506172839,0)" xlink:href="#W"/></g><g id="z"><use transform="matrix(0.06172839506172839,0,0,0.06172839506172839,0,0)" xlink:href="#af"/><use transform="matrix(0.06172839506172839,0,0,0.06172839506172839,18.456790123456788,0)" xlink:href="#ab"/><use transform="matrix(0.06172839506172839,0,0,0.06172839506172839,30.80246913580247,0)" xlink:href="#ar"/><use transform="matrix(0.06172839506172839,0,0,0.06172839506172839,43.148148148148145,0)" xlink:href="#S"/><use transform="matrix(0.06172839506172839,0,0,0.06172839506172839,55.49382716049382,0)" xlink:href="#V"/><use transform="matrix(0.06172839506172839,0,0,0.06172839506172839,60.37037037037037,0)" xlink:href="#ag"/><use transform="matrix(0.06172839506172839,0,0,0.06172839506172839,66.5432098765432,0)" xlink:href="#am"/><use transform="matrix(0.06172839506172839,0,0,0.06172839506172839,78.88888888888889,0)" xlink:href="#aa"/><use transform="matrix(0.06172839506172839,0,0,0.06172839506172839,91.23456790123457,0)" xlink:href="#Y"/></g><path d="M30-248c118-7 216 8 213 122C240-48 200 0 122 0H30v-248zM63-27c89 8 146-16 146-99s-60-101-146-95v194" id="au"/><g id="A"><use transform="matrix(0.04320987654320985,0,0,0.04320987654320985,0,0)" xlink:href="#au"/><use transform="matrix(0.04320987654320985,0,0,0.04320987654320985,11.191358024691352,0)" xlink:href="#Y"/><use transform="matrix(0.04320987654320985,0,0,0.04320987654320985,19.83333333333332,0)" xlink:href="#U"/><use transform="matrix(0.04320987654320985,0,0,0.04320987654320985,27.611111111111093,0)" xlink:href="#V"/><use transform="matrix(0.04320987654320985,0,0,0.04320987654320985,31.02469135802467,0)" xlink:href="#aa"/><use transform="matrix(0.04320987654320985,0,0,0.04320987654320985,39.66666666666664,0)" xlink:href="#V"/><use transform="matrix(0.04320987654320985,0,0,0.04320987654320985,43.08024691358022,0)" xlink:href="#Z"/></g><g id="B"><use transform="matrix(0.04320987654320985,0,0,0.04320987654320985,0,0)" xlink:href="#Y"/><use transform="matrix(0.04320987654320985,0,0,0.04320987654320985,8.641975308641971,0)" xlink:href="#af"/></g><path d="M145-31C134-9 116 4 85 4 32 4 16-35 15-94c0-59 17-99 70-100 32-1 48 14 60 33 0-11-1-24 2-32h30l-1 268h-32zM93-21c41 0 51-33 51-76s-8-73-50-73c-40 0-46 35-46 75s5 74 45 74" id="av"/><g id="C"><use transform="matrix(0.04320987654320985,0,0,0.04320987654320985,0,0)" xlink:href="#av"/><use transform="matrix(0.04320987654320985,0,0,0.04320987654320985,8.641975308641971,0)" xlink:href="#am"/><use transform="matrix(0.04320987654320985,0,0,0.04320987654320985,17.283950617283942,0)" xlink:href="#ab"/><use transform="matrix(0.04320987654320985,0,0,0.04320987654320985,25.925925925925913,0)" xlink:href="#ad"/></g><g id="D"><use transform="matrix(0.04320987654320985,0,0,0.04320987654320985,0,0)" xlink:href="#V"/><use transform="matrix(0.04320987654320985,0,0,0.04320987654320985,3.4135802469135785,0)" xlink:href="#S"/><use transform="matrix(0.04320987654320985,0,0,0.04320987654320985,12.055555555555548,0)" xlink:href="#ag"/><use transform="matrix(0.04320987654320985,0,0,0.04320987654320985,16.376543209876537,0)" xlink:href="#Y"/><use transform="matrix(0.04320987654320985,0,0,0.04320987654320985,25.01851851851851,0)" xlink:href="#Z"/><use transform="matrix(0.04320987654320985,0,0,0.04320987654320985,30.160493827160476,0)" xlink:href="#at"/><use transform="matrix(0.04320987654320985,0,0,0.04320987654320985,37.93827160493825,0)" xlink:href="#ab"/><use transform="matrix(0.04320987654320985,0,0,0.04320987654320985,46.58024691358022,0)" xlink:href="#ad"/><use transform="matrix(0.04320987654320985,0,0,0.04320987654320985,49.9938271604938,0)" xlink:href="#W"/></g><use transform="matrix(0.04320987654320985,0,0,0.04320987654320985,0,0)" xlink:href="#ab" id="E"/><g id="F"><use transform="matrix(0.04320987654320985,0,0,0.04320987654320985,0,0)" xlink:href="#af"/><use transform="matrix(0.04320987654320985,0,0,0.04320987654320985,12.919753086419746,0)" xlink:href="#ab"/><use transform="matrix(0.04320987654320985,0,0,0.04320987654320985,21.561728395061717,0)" xlink:href="#ar"/><use transform="matrix(0.04320987654320985,0,0,0.04320987654320985,30.203703703703688,0)" xlink:href="#S"/><use transform="matrix(0.04320987654320985,0,0,0.04320987654320985,38.845679012345656,0)" xlink:href="#V"/><use transform="matrix(0.04320987654320985,0,0,0.04320987654320985,42.25925925925923,0)" xlink:href="#ag"/><use transform="matrix(0.04320987654320985,0,0,0.04320987654320985,46.58024691358022,0)" xlink:href="#am"/><use transform="matrix(0.04320987654320985,0,0,0.04320987654320985,55.222222222222186,0)" xlink:href="#aa"/><use transform="matrix(0.04320987654320985,0,0,0.04320987654320985,63.86419753086416,0)" xlink:href="#Y"/></g><g id="G"><use transform="matrix(0.04320987654320985,0,0,0.04320987654320985,0,0)" xlink:href="#ac"/><use transform="matrix(0.04320987654320985,0,0,0.04320987654320985,7.777777777777773,0)" xlink:href="#Y"/></g><g id="H"><use transform="matrix(0.04320987654320985,0,0,0.04320987654320985,0,0)" xlink:href="#Y"/><use transform="matrix(0.04320987654320985,0,0,0.04320987654320985,8.641975308641971,0)" xlink:href="#S"/><use transform="matrix(0.04320987654320985,0,0,0.04320987654320985,17.283950617283942,0)" xlink:href="#U"/><use transform="matrix(0.04320987654320985,0,0,0.04320987654320985,25.061728395061714,0)" xlink:href="#W"/><use transform="matrix(0.04320987654320985,0,0,0.04320987654320985,33.70370370370368,0)" xlink:href="#S"/><use transform="matrix(0.04320987654320985,0,0,0.04320987654320985,42.345679012345656,0)" xlink:href="#ag"/><use transform="matrix(0.04320987654320985,0,0,0.04320987654320985,46.66666666666664,0)" xlink:href="#Z"/><use transform="matrix(0.04320987654320985,0,0,0.04320987654320985,51.80864197530862,0)" xlink:href="#ab"/></g><path fill="#333" d="M146-102V0H94v-102L6-248h54l60 105 60-105h54" id="aw"/><path fill="#333" d="M185-48c-13 30-37 53-82 52C43 2 14-33 14-96s30-98 90-98c62 0 83 45 84 108H66c0 31 8 55 39 56 18 0 30-7 34-22zm-45-69c5-46-57-63-70-21-2 6-4 13-4 21h74" id="ax"/><path fill="#333" d="M137-138c1-29-70-34-71-4 15 46 118 7 119 86 1 83-164 76-172 9l43-7c4 19 20 25 44 25 33 8 57-30 24-41C81-84 22-81 20-136c-2-80 154-74 161-7" id="ay"/><g id="I"><use transform="matrix(0.04938271604938272,0,0,0.04938271604938272,0,0)" xlink:href="#aw"/><use transform="matrix(0.04938271604938272,0,0,0.04938271604938272,10.864197530864198,0)" xlink:href="#ax"/><use transform="matrix(0.04938271604938272,0,0,0.04938271604938272,20.74074074074074,0)" xlink:href="#ay"/></g><path d="M175 0L67-191c6 58 2 128 3 191H24v-248h59L193-55c-6-58-2-129-3-193h46V0h-61" id="az"/><path d="M110-194c64 0 96 36 96 99 0 64-35 99-97 99-61 0-95-36-95-99 0-62 34-99 96-99zm-1 164c35 0 45-28 45-65 0-40-10-65-43-65-34 0-45 26-45 65 0 36 10 65 43 65" id="aA"/><g id="J"><use transform="matrix(0.04938271604938272,0,0,0.04938271604938272,0,0)" xlink:href="#az"/><use transform="matrix(0.04938271604938272,0,0,0.04938271604938272,12.790123456790125,0)" xlink:href="#aA"/></g><path d="M101-234c-31-9-42 10-38 44h38v23H63V0H32v-167H5v-23h27c-7-52 17-82 69-68v24" id="aB"/><g id="K"><use transform="matrix(0.06172839506172839,0,0,0.06172839506172839,0,0)" xlink:href="#aq"/><use transform="matrix(0.06172839506172839,0,0,0.06172839506172839,15.987654320987653,0)" xlink:href="#ad"/><use transform="matrix(0.06172839506172839,0,0,0.06172839506172839,20.864197530864196,0)" xlink:href="#ab"/><use transform="matrix(0.06172839506172839,0,0,0.06172839506172839,33.20987654320987,0)" xlink:href="#ac"/><use transform="matrix(0.06172839506172839,0,0,0.06172839506172839,44.32098765432099,0)" xlink:href="#ac"/><use transform="matrix(0.06172839506172839,0,0,0.06172839506172839,55.4320987654321,0)" xlink:href="#V"/><use transform="matrix(0.06172839506172839,0,0,0.06172839506172839,60.308641975308646,0)" xlink:href="#aB"/><use transform="matrix(0.06172839506172839,0,0,0.06172839506172839,66.48148148148148,0)" xlink:href="#V"/><use transform="matrix(0.06172839506172839,0,0,0.06172839506172839,71.35802469135803,0)" xlink:href="#U"/><use transform="matrix(0.06172839506172839,0,0,0.06172839506172839,82.46913580246914,0)" xlink:href="#ab"/><use transform="matrix(0.06172839506172839,0,0,0.06172839506172839,94.81481481481482,0)" xlink:href="#Z"/></g><g id="L"><use transform="matrix(0.06172839506172839,0,0,0.06172839506172839,0,0)" xlink:href="#U"/><use transform="matrix(0.06172839506172839,0,0,0.06172839506172839,11.11111111111111,0)" xlink:href="#W"/><use transform="matrix(0.06172839506172839,0,0,0.06172839506172839,23.45679012345679,0)" xlink:href="#af"/><use transform="matrix(0.06172839506172839,0,0,0.06172839506172839,41.91358024691358,0)" xlink:href="#W"/></g><path d="M101-251c68 0 85 55 85 127S166 4 100 4C33 4 14-52 14-124c0-73 17-127 87-127zm-1 229c47 0 54-49 54-102s-4-102-53-102c-51 0-55 48-55 102 0 53 5 102 54 102" id="aC"/><use transform="matrix(0.06172839506172839,0,0,0.06172839506172839,0,0)" xlink:href="#aC" id="M"/><path d="M27 0v-27h64v-190l-56 39v-29l58-41h29v221h61V0H27" id="aD"/><path d="M68-38c1 34 0 65-14 84H32c9-13 17-26 17-46H33v-38h35" id="aE"/><path d="M101-251c82-7 93 87 43 132L82-64C71-53 59-42 53-27h129V0H18c2-99 128-94 128-182 0-28-16-43-45-43s-46 15-49 41l-32-3c6-41 34-60 81-64" id="aF"/><g id="N"><use transform="matrix(0.06172839506172839,0,0,0.06172839506172839,0,0)" xlink:href="#aD"/><use transform="matrix(0.06172839506172839,0,0,0.06172839506172839,12.345679012345679,0)" xlink:href="#aE"/><use transform="matrix(0.06172839506172839,0,0,0.06172839506172839,18.51851851851852,0)" xlink:href="#aF"/></g><g id="O"><use transform="matrix(0.06172839506172839,0,0,0.06172839506172839,0,0)" xlink:href="#W"/><use transform="matrix(0.06172839506172839,0,0,0.06172839506172839,12.345679012345679,0)" xlink:href="#am"/></g><path d="M126-127c33 6 58 20 58 59 0 88-139 92-164 29-3-8-5-16-6-25l32-3c6 27 21 44 54 44 32 0 52-15 52-46 0-38-36-46-79-43v-28c39 1 72-4 72-42 0-27-17-43-46-43-28 0-47 15-49 41l-32-3c6-42 35-63 81-64 48-1 79 21 79 65 0 36-21 52-52 59" id="aG"/><use transform="matrix(0.06172839506172839,0,0,0.06172839506172839,0,0)" xlink:href="#aG" id="P"/><path d="M63-220v92h138v28H63V0H30v-248h175v28H63" id="aH"/><g id="Q"><use transform="matrix(0.06172839506172839,0,0,0.06172839506172839,0,0)" xlink:href="#aH"/><use transform="matrix(0.06172839506172839,0,0,0.06172839506172839,13.518518518518517,0)" xlink:href="#V"/><use transform="matrix(0.06172839506172839,0,0,0.06172839506172839,18.39506172839506,0)" xlink:href="#af"/></g></defs></g></svg>